HIERARCHY
ROOT Hips
{
  OFFSET -2.34488 91.5937 131.183
  CHANNELS 6 Xposition Yposition Zposition Zrotation Xrotation Yrotation
  JOINT ToSpine
  {
    OFFSET -2.69724 7.43032 -0.144315
    CHANNELS 3 Zrotation Xrotation Yrotation
    JOINT Spine
    {
      OFFSET -0.0310711 10.7595 1.96963
      CHANNELS 3 Zrotation Xrotation Yrotation
      JOINT Spine1
      {
        OFFSET 13.1342 3.43533 0.764692
        CHANNELS 3 Zrotation Xrotation Yrotation
        JOINT Neck
        {
          OFFSET 29.8703 7.82586 -0.130764
          CHANNELS 3 Zrotation Xrotation Yrotation
          JOINT Head
          {
            OFFSET 9.52751 0.295786 -0.907742
            CHANNELS 3 Zrotation Xrotation Yrotation
            End Site
            {
              OFFSET 16.4037 0.713936 2.7358
            }
          }
        }
        JOINT LeftShoulder
        {
          OFFSET 27.5574 4.95586 2.47156
          CHANNELS 3 Zrotation Xrotation Yrotation
          JOINT LeftArm
          {
            OFFSET 1.20734 -0.998971 20.1238
            CHANNELS 3 Zrotation Xrotation Yrotation
            JOINT LeftForeArm
            {
              OFFSET 26.8049 -0.0536703 -0.155908
              CHANNELS 3 Zrotation Xrotation Yrotation
              JOINT LeftHand
              {
                OFFSET 26.6817 0 0.320147
                CHANNELS 3 Zrotation Xrotation Yrotation
                End Site
                {
                  OFFSET 18.6119 0 0.382219
                }
              }
            }
          }
        }
        JOINT RightShoulder
        {
          OFFSET 27.5927 4.71444 -2.65209
          CHANNELS 3 Zrotation Xrotation Yrotation
          JOINT RightArm
          {
            OFFSET 2.83739 -1.17114 -18.7564
            CHANNELS 3 Zrotation Xrotation Yrotation
            JOINT RightForeArm
            {
              OFFSET 28.839 -0.0548439 1.22491
              CHANNELS 3 Zrotation Xrotation Yrotation
              JOINT RightHand
              {
                OFFSET 26.5114 0 -0.101894
                CHANNELS 3 Zrotation Xrotation Yrotation
                End Site
                {
                  OFFSET 18.2168 0 0
                }
              }
            }
          }
        }
      }
    }
  }
  JOINT LeftUpLeg
  {
    OFFSET -4.76168 -1.9167 -10.2353
    CHANNELS 3 Zrotation Xrotation Yrotation
    JOINT LeftLeg
    {
      OFFSET 2.55951 -42.0585 -8.02213
      CHANNELS 3 Zrotation Xrotation Yrotation
      JOINT LeftFoot
      {
        OFFSET 3.16357 -42.5282 -3.95426
        CHANNELS 3 Zrotation Xrotation Yrotation
        JOINT LeftToeBase
        {
          OFFSET 0.346054 -6.02161 12.8035
          CHANNELS 3 Zrotation Xrotation Yrotation
          End Site
          {
            OFFSET 0.134235 -1.35082 5.13018
          }
        }
      }
    }
  }
  JOINT RightUpLeg
  {
    OFFSET -4.94151 -1.41743 10.6446
    CHANNELS 3 Zrotation Xrotation Yrotation
    JOINT RightLeg
    {
      OFFSET -2.56294 -42.0364 -7.94377
      CHANNELS 3 Zrotation Xrotation Yrotation
      JOINT RightFoot
      {
        OFFSET -3.0952 -42.555 -4.02241
        CHANNELS 3 Zrotation Xrotation Yrotation
        JOINT RightToeBase
        {
          OFFSET -0.0828122 -6.13587 12.8035
          CHANNELS 3 Zrotation Xrotation Yrotation
          End Site
          {
            OFFSET -0.131328 -1.35082 5.13018
          }
        }
      }
    }
  }
}
MOTION
Frames:	6
Frame Time:	0.0333333
-20.1735 91.8811 -65.3812 73.0954 -32.4535 -7.03906 -70.1915 0 88.8779 91.4623 73.8902 -8.29821 -0.467861 23.1227 7.43573 -123.493 35.5447 155.256 168.991 78.7944 -137.599 0.294843 -14.9112 -26.8509 -61.62 30.7821 -143.212 15.2848 -2.85414 -99.5238 -1.36253 0.0139259 1.76514 -2.22416 6.91772 46.4406 -129.609 -3.96449 92.9329 14.6711 -2.8524 79.0781 0.58676 0.000330102 0.0646656 -42.9861 14.7216 100.191 -4.60011 53.937 -7.24596 1.63789 -16.8933 -1.40915 2.8454 -9.43776 14.9228 -40.2209 -17.3158 69.6816 1.58269 36.5791 0.75006 -4.78529 1.01612 0.730874 0.36593 -4.98221 1.86174 
-20.1824 92.0098 -65.3025 72.9469 -32.9936 -7.23277 -70.1915 0 88.8779 90.4826 74.1787 -7.07229 -0.227997 23.4714 7.27615 -124.517 35.4676 156.245 167.075 78.1475 -135.876 0.272205 -14.9646 -27.2057 -61.5906 30.9412 -142.95 15.4725 -2.87011 -99.4534 -1.45028 0.0133786 1.58482 -2.21704 6.88801 46.4785 -129.275 -3.93556 92.8891 14.7354 -2.8921 78.985 0.58676 0.000330102 0.0646656 -43.3444 15.0556 100.759 -4.56478 53.5674 -7.50459 1.41927 -16.8284 -1.40944 2.80097 -9.41079 15.1731 -40.1956 -16.698 70.4104 1.53181 36.1086 0.461706 -4.14644 1.05134 0.640537 0.267788 -4.25372 1.84306 
-20.2005 92.176 -65.3799 73.2158 -32.4884 -7.01218 -70.1915 0 88.8779 91.0607 73.8567 -8.00713 -0.358233 22.9998 7.4789 -124.811 35.3899 156.482 166.678 77.9257 -135.467 0.317678 -14.7706 -26.8288 -61.2564 32.0923 -142.764 16.857 -3.1092 -99.358 -1.38743 0.0137713 1.63664 -2.20431 6.78012 46.8033 -129.005 -4.15247 92.763 14.9704 -2.95792 78.9245 0.58676 0.000330102 0.0646656 -43.5139 14.4218 100.092 -4.45251 53.1384 -7.33849 1.2322 -16.9829 -1.42411 2.28624 -8.67389 15.467 -40.7418 -16.904 70.2272 1.60484 35.6912 0.344543 -3.91952 1.44099 0.59265 0.347103 -4.4578 1.42833 
-20.1879 92.2506 -65.4382 73.1876 -32.2605 -6.8996 -70.1915 0 88.8779 90.7209 73.7095 -7.56844 -0.367126 22.8719 7.39991 -124.476 35.2627 156.234 167.794 77.9998 -136.258 0.329936 -14.7041 -26.818 -61.1174 31.9146 -142.621 17.3406 -3.1334 -99.1442 -1.30284 0.0143016 1.53538 -2.23196 6.77304 47.225 -128.835 -3.89829 92.658 14.6686 -2.9229 78.8291 0.58676 0.000330102 0.0646656 -43.4794 14.1774 99.7345 -4.35323 52.8535 -7.05948 1.39638 -16.7157 -1.40175 2.52707 -8.96416 15.0299 -41.0663 -17 69.9275 1.77804 35.2232 0.406434 -3.50205 1.5604 0.527689 0.347583 -4.29355 1.25425 
-20.2126 92.3032 -65.465 73.066 -32.217 -6.80571 -70.1915 0 88.8779 91.3195 73.6187 -7.73133 -0.611856 22.9436 6.95534 -124.477 35.0493 155.628 171.11 78.2517 -139.82 0.350666 -14.7081 -26.2797 -60.9341 31.5705 -142.948 17.3483 -3.06924 -98.9436 -1.15853 0.0152056 1.41353 -2.2278 6.62676 47.8746 -128.99 -3.67733 92.86 14.6205 -2.89744 78.8835 0.58676 0.000330102 0.0646656 -43.3614 14.2493 99.6097 -4.35042 52.7547 -7.183 1.44394 -16.6184 -1.39416 2.52969 -9.03971 15.4269 -41.2547 -16.8202 69.9211 1.93143 34.7478 0.190067 -3.04848 1.46028 0.467736 0.272829 -3.66058 1.18864 
-20.2264 92.3267 -65.4911 73.0797 -32.1824 -6.81637 -70.1915 0 88.8779 91.6031 73.6117 -8.25544 -0.799061 22.837 7.32443 -124.943 35.2306 155.937 171.638 78.3408 -140.518 0.376081 -14.5289 -26.3893 -61.0913 31.3933 -143.238 16.7938 -2.97882 -98.9845 -1.14926 0.0152633 1.45076 -2.20069 6.69322 47.1655 -129.131 -3.97735 92.7457 14.7025 -2.89104 78.9651 0.58676 0.000330102 0.0646656 -43.3513 14.2603 99.7107 -4.36888 52.759 -7.30008 1.55923 -16.566 -1.38836 2.63846 -9.24043 15.6194 -41.3211 -16.8694 69.9111 1.95966 34.6501 0.186604 -2.82134 1.27502 0.444962 0.199937 -3.21252 1.28811 
